PathFileType	4	(X/Y/Z)	 2.2Hz3min.trc
DataRate	CameraRate	NumFrames	NumMarkers	Units	OrigDataRate	OrigDataStartFrame	OrigNumFrames
200	200	9	43	m	200	126	1000
Frame#	Time	C7			LSH			RSH			MAN			RASI			LASI			HIPR			HIPL			RPSI			LPSI			COX			RTHI1			RTHI2			RTHI3			RTHI4			RLKN			RMKN			RSHA1			RSHA2			RSHA3			RSHA4			RLMAL			RMMAL			RHEEL			RMET5			RMET1			RTOE			LTHI1			LTHI2			LTHI3			LTHI4			LLKN			LMKN			LSHA1			LSHA2			LSHA3			LSHA4			LLMAL			LMMAL			LHEEL			LMET5			LMET1			LTOE			
		X1	Y1	Z1	X2	Y2	Z2	X3	Y3	Z3	X4	Y4	Z4	X5	Y5	Z5	X6	Y6	Z6	X7	Y7	Z7	X8	Y8	Z8	X9	Y9	Z9	X10	Y10	Z10	X11	Y11	Z11	X12	Y12	Z12	X13	Y13	Z13	X14	Y14	Z14	X15	Y15	Z15	X16	Y16	Z16	X17	Y17	Z17	X18	Y18	Z18	X19	Y19	Z19	X20	Y20	Z20	X21	Y21	Z21	X22	Y22	Z22	X23	Y23	Z23	X24	Y24	Z24	X25	Y25	Z25	X26	Y26	Z26	X27	Y27	Z27	X28	Y28	Z28	X29	Y29	Z29	X30	Y30	Z30	X31	Y31	Z31	X32	Y32	Z32	X33	Y33	Z33	X34	Y34	Z34	X35	Y35	Z35	X36	Y36	Z36	X37	Y37	Z37	X38	Y38	Z38	X39	Y39	Z39	X40	Y40	Z40	X41	Y41	Z41	X42	Y42	Z42	X43	Y43	Z43	
126	0.6300	-0.242795	1.435344	-0.531760	-0.168672	1.416437	-0.679856	-0.170060	1.412448	-0.373351	-0.121690	1.372201	-0.527056	-0.104106	0.935708	-0.414852	-0.116211	0.942327	-0.641999	-0.160183	1.012825	-0.380260	-0.182205	0.998397	-0.671947	-0.267056	0.997626	-0.466010	-0.276059	0.993475	-0.550907	-0.275695	0.996025	-0.512892	-0.229255	0.767633	-0.338866	-0.211815	0.711033	-0.332642	-0.149417	0.725512	-0.327376	-0.158670	0.786575	-0.332983	-0.192203	0.525789	-0.338831	-0.179985	0.498235	-0.470206	-0.275105	0.400750	-0.322266	-0.279863	0.359390	-0.333551	-0.220115	0.392621	-0.312293	-0.221412	0.353272	-0.317452	-0.262482	0.152880	-0.338503	-0.235402	0.161299	-0.416905	-0.315445	0.147799	-0.385200	-0.181560	0.071263	-0.312766	-0.144413	0.069485	-0.378960	-0.124641	0.060457	-0.372287	-0.222861	0.765080	-0.713750	-0.200914	0.708367	-0.724574	-0.138370	0.726593	-0.725719	-0.152821	0.784210	-0.716553	-0.178788	0.523056	-0.730852	-0.152370	0.501439	-0.608531	-0.268405	0.374204	-0.742380	-0.275934	0.334487	-0.735654	-0.217097	0.326757	-0.750818	-0.216552	0.370427	-0.756977	-0.262512	0.168135	-0.744336	-0.240007	0.178098	-0.664341	-0.321045	0.168379	-0.691070	-0.205104	0.081083	-0.764648	-0.166333	0.072050	-0.700664	-0.148627	0.056535	-0.707166	
127	0.6350	-0.242478	1.432602	-0.532057	-0.168321	1.413597	-0.680122	-0.169818	1.409576	-0.373623	-0.121494	1.369382	-0.527370	-0.104929	0.932829	-0.415075	-0.116646	0.939513	-0.642201	-0.160961	1.009898	-0.380605	-0.182565	0.995594	-0.672279	-0.267739	0.994569	-0.466519	-0.276699	0.990585	-0.551377	-0.276297	0.993181	-0.513371	-0.229604	0.764593	-0.339271	-0.211929	0.708094	-0.332955	-0.149610	0.722857	-0.327694	-0.159105	0.783817	-0.333423	-0.191654	0.522993	-0.338959	-0.179166	0.495436	-0.470288	-0.274815	0.398117	-0.322516	-0.279637	0.356756	-0.333923	-0.219828	0.389823	-0.312529	-0.221227	0.350484	-0.317789	-0.263010	0.150349	-0.339033	-0.235716	0.158741	-0.417444	-0.315923	0.145563	-0.385889	-0.182409	0.068368	-0.313340	-0.145092	0.066671	-0.379429	-0.125378	0.057670	-0.372740	-0.222918	0.762406	-0.714467	-0.200843	0.705750	-0.725302	-0.138329	0.724060	-0.726205	-0.152890	0.781655	-0.717027	-0.178522	0.520503	-0.731703	-0.151913	0.498837	-0.609456	-0.268460	0.371882	-0.743029	-0.276068	0.332186	-0.736338	-0.217287	0.324332	-0.751733	-0.216677	0.368003	-0.757852	-0.262971	0.165742	-0.745216	-0.240459	0.175705	-0.665216	-0.321527	0.166250	-0.692031	-0.205767	0.078390	-0.765266	-0.167132	0.069481	-0.701244	-0.149459	0.053949	-0.707706	
128	0.6400	-0.242138	1.429595	-0.532332	-0.167936	1.410513	-0.680373	-0.169588	1.406457	-0.373895	-0.121312	1.366347	-0.527679	-0.105788	0.929707	-0.415298	-0.117098	0.936465	-0.642394	-0.161792	1.006731	-0.380971	-0.182910	0.992550	-0.672624	-0.268464	0.991302	-0.467056	-0.277356	0.987461	-0.551877	-0.276922	0.990094	-0.513874	-0.229950	0.761302	-0.339692	-0.212025	0.704913	-0.333289	-0.149794	0.720003	-0.328000	-0.159550	0.780843	-0.333862	-0.191023	0.519963	-0.339070	-0.178233	0.492403	-0.470328	-0.274479	0.395281	-0.322773	-0.279376	0.353927	-0.334296	-0.219504	0.386807	-0.312739	-0.221023	0.347474	-0.318100	-0.263574	0.147626	-0.339583	-0.236008	0.155961	-0.417957	-0.316388	0.143192	-0.386614	-0.183449	0.065206	-0.313824	-0.145900	0.063541	-0.379786	-0.126264	0.054515	-0.373026	-0.223006	0.759508	-0.715142	-0.200813	0.702903	-0.726000	-0.138322	0.721286	-0.726661	-0.152985	0.778853	-0.717451	-0.178205	0.517705	-0.732584	-0.151426	0.495941	-0.610411	-0.268468	0.369326	-0.743725	-0.276170	0.329652	-0.737064	-0.217441	0.321648	-0.752649	-0.216745	0.365316	-0.758735	-0.263467	0.163129	-0.746095	-0.240909	0.173082	-0.666098	-0.322020	0.163918	-0.692961	-0.206517	0.075436	-0.765925	-0.167967	0.066605	-0.701875	-0.150365	0.051093	-0.708330	
129	0.6450	-0.241790	1.426328	-0.532611	-0.167531	1.407188	-0.680627	-0.169365	1.403097	-0.374175	-0.121123	1.363058	-0.527969	-0.106681	0.926348	-0.415525	-0.117570	0.933179	-0.642590	-0.162677	1.003318	-0.381355	-0.183253	0.989267	-0.672979	-0.269228	0.987822	-0.467619	-0.278028	0.984104	-0.552408	-0.277571	0.986755	-0.514398	-0.230291	0.757771	-0.340129	-0.212102	0.701490	-0.333631	-0.149961	0.716930	-0.328318	-0.160004	0.777654	-0.334299	-0.190308	0.516694	-0.339167	-0.177176	0.489143	-0.470319	-0.274087	0.392262	-0.323042	-0.279077	0.350913	-0.334674	-0.219138	0.383580	-0.312916	-0.220798	0.344244	-0.318386	-0.264156	0.144707	-0.340135	-0.236302	0.152970	-0.418448	-0.316848	0.140687	-0.387373	-0.184656	0.061776	-0.314202	-0.146845	0.060065	-0.380017	-0.127308	0.050989	-0.373194	-0.223120	0.756377	-0.715778	-0.200817	0.699818	-0.726662	-0.138345	0.718274	-0.727087	-0.153101	0.775802	-0.717834	-0.177840	0.514657	-0.733483	-0.150908	0.492755	-0.611398	-0.268424	0.366538	-0.744474	-0.276236	0.326867	-0.737832	-0.217557	0.318704	-0.753558	-0.216753	0.362361	-0.759624	-0.264014	0.160299	-0.746968	-0.241352	0.170239	-0.666987	-0.322531	0.161370	-0.693842	-0.207365	0.072291	-0.766629	-0.168851	0.063476	-0.702593	-0.151314	0.047946	-0.709032	
130	0.6500	-0.241440	1.422802	-0.532911	-0.167099	1.403620	-0.680876	-0.169144	1.399485	-0.374454	-0.120917	1.359516	-0.528240	-0.107609	0.922745	-0.415755	-0.118054	0.929653	-0.642788	-0.163615	0.999658	-0.381760	-0.183604	0.985739	-0.673344	-0.270030	0.984127	-0.468212	-0.278715	0.980504	-0.552971	-0.278251	0.983160	-0.514941	-0.230627	0.753992	-0.340591	-0.212151	0.697831	-0.333981	-0.150119	0.713660	-0.328622	-0.160460	0.774251	-0.334737	-0.189494	0.513212	-0.339238	-0.176019	0.485640	-0.470262	-0.273634	0.389047	-0.323325	-0.278733	0.347704	-0.335055	-0.218729	0.380153	-0.313068	-0.220543	0.340802	-0.318630	-0.264774	0.141599	-0.340694	-0.236622	0.149770	-0.418925	-0.317329	0.138034	-0.388147	-0.186018	0.058129	-0.314487	-0.147928	0.056296	-0.380191	-0.128484	0.047142	-0.373277	-0.223254	0.753003	-0.716378	-0.200849	0.696488	-0.727291	-0.138390	0.715021	-0.727491	-0.153243	0.772507	-0.718184	-0.177424	0.511362	-0.734412	-0.150349	0.489295	-0.612422	-0.268337	0.363508	-0.745279	-0.276269	0.323857	-0.738641	-0.217634	0.315513	-0.754461	-0.216704	0.359150	-0.760530	-0.264637	0.157267	-0.747833	-0.241818	0.167180	-0.667873	-0.323082	0.158593	-0.694659	-0.208295	0.068907	-0.767382	-0.169765	0.060126	-0.703394	-0.152295	0.044599	-0.709836	
131	0.6550	-0.241088	1.419025	-0.533221	-0.166639	1.399810	-0.681118	-0.168922	1.395624	-0.374732	-0.120697	1.355727	-0.528488	-0.108565	0.918903	-0.415992	-0.118549	0.925881	-0.642994	-0.164603	0.995749	-0.382184	-0.183965	0.981956	-0.673711	-0.270872	0.980211	-0.468823	-0.279417	0.976669	-0.553564	-0.278970	0.979315	-0.515509	-0.230959	0.749972	-0.341079	-0.212170	0.693932	-0.334360	-0.150257	0.710178	-0.328929	-0.160905	0.770651	-0.335177	-0.188568	0.509501	-0.339291	-0.174753	0.481900	-0.470157	-0.273122	0.385639	-0.323629	-0.278349	0.344330	-0.335421	-0.218288	0.376522	-0.313204	-0.220256	0.337157	-0.318824	-0.265471	0.138311	-0.341268	-0.237026	0.146367	-0.419399	-0.317907	0.135182	-0.388954	-0.187511	0.054273	-0.314711	-0.149122	0.052242	-0.380316	-0.129779	0.043021	-0.373281	-0.223403	0.749379	-0.716938	-0.200898	0.692914	-0.727892	-0.138457	0.711524	-0.727887	-0.153408	0.768960	-0.718508	-0.176964	0.507822	-0.735364	-0.149748	0.485567	-0.613481	-0.268210	0.360246	-0.746143	-0.276284	0.320617	-0.739503	-0.217684	0.312065	-0.755364	-0.216605	0.355686	-0.761448	-0.265377	0.154042	-0.748688	-0.242367	0.163893	-0.668759	-0.323701	0.155570	-0.695383	-0.209348	0.065300	-0.768186	-0.170788	0.056630	-0.704244	-0.153404	0.041565	-0.710402	
132	0.6600	-0.240736	1.414981	-0.533535	-0.166155	1.395761	-0.681354	-0.168696	1.391512	-0.375011	-0.120468	1.351616	-0.528718	-0.109556	0.914820	-0.416239	-0.119052	0.921870	-0.643211	-0.165636	0.991600	-0.382630	-0.184333	0.977920	-0.674076	-0.271757	0.976077	-0.469457	-0.280137	0.972596	-0.554182	-0.279732	0.975235	-0.516103	-0.231289	0.745713	-0.341597	-0.212164	0.689808	-0.334752	-0.150382	0.706473	-0.329244	-0.161352	0.766846	-0.335622	-0.187538	0.505577	-0.339295	-0.173392	0.477930	-0.469996	-0.272559	0.382036	-0.323939	-0.277933	0.340782	-0.335770	-0.217814	0.372680	-0.313306	-0.219953	0.333322	-0.318971	-0.266359	0.134864	-0.341863	-0.237614	0.142787	-0.419896	-0.318686	0.132047	-0.389799	-0.189135	0.050297	-0.314884	-0.150510	0.048372	-0.380671	-0.131170	0.039556	-0.373588	-0.223560	0.745501	-0.717463	-0.200964	0.689084	-0.728466	-0.138537	0.707784	-0.728273	-0.153589	0.765166	-0.718808	-0.176457	0.504039	-0.736348	-0.149109	0.481578	-0.614585	-0.268058	0.356751	-0.747077	-0.276282	0.317150	-0.740411	-0.217719	0.308363	-0.756280	-0.216476	0.351967	-0.762390	-0.266295	0.150621	-0.749519	-0.243030	0.160395	-0.669648	-0.324487	0.152275	-0.696028	-0.210541	0.061528	-0.769018	-0.172003	0.053263	-0.704883	-0.154507	0.039031	-0.710727	
133	0.6650	-0.240368	1.410684	-0.533819	-0.165643	1.391484	-0.681582	-0.168456	1.387145	-0.375285	-0.120162	1.347194	-0.528934	-0.110577	0.910499	-0.416496	-0.119567	0.917607	-0.643440	-0.166707	0.987216	-0.383095	-0.184730	0.973652	-0.674444	-0.272679	0.971724	-0.470105	-0.280868	0.968289	-0.554817	-0.280540	0.970922	-0.516732	-0.231622	0.741223	-0.342147	-0.212145	0.685452	-0.335148	-0.150497	0.702558	-0.329557	-0.161809	0.762837	-0.336077	-0.186408	0.501440	-0.339260	-0.171925	0.473735	-0.469772	-0.271948	0.378259	-0.324241	-0.277497	0.337057	-0.336095	-0.217315	0.368630	-0.313360	-0.219648	0.329281	-0.319059	-0.267558	0.131306	-0.342506	-0.238516	0.139081	-0.420455	-0.319781	0.128575	-0.390674	-0.190835	0.046434	-0.314909	-0.151490	0.045159	-0.381163	-0.131968	0.036807	-0.374217	-0.223725	0.741365	-0.717959	-0.201028	0.685002	-0.729019	-0.138622	0.703807	-0.728647	-0.153790	0.761133	-0.719094	-0.175903	0.500017	-0.737367	-0.148440	0.477351	-0.615746	-0.267902	0.353023	-0.748087	-0.276293	0.313475	-0.741388	-0.217769	0.304410	-0.757230	-0.216337	0.347997	-0.763386	-0.267499	0.147029	-0.750309	-0.243954	0.156719	-0.670514	-0.325596	0.148690	-0.696609	-0.211806	0.057580	-0.769713	-0.173429	0.050096	-0.705388	-0.155693	0.037092	-0.710900	
134	0.6700	-0.239978	1.406138	-0.534063	-0.165105	1.386975	-0.681804	-0.168198	1.382524	-0.375552	-0.119820	1.342494	-0.529144	-0.111626	0.905940	-0.416766	-0.120088	0.913094	-0.643685	-0.167811	0.982607	-0.383578	-0.185151	0.969147	-0.674821	-0.273642	0.967160	-0.470771	-0.281614	0.963748	-0.555469	-0.281391	0.966388	-0.517396	-0.231961	0.736500	-0.342733	-0.212111	0.680886	-0.335553	-0.150602	0.698438	-0.329844	-0.162284	0.758626	-0.336542	-0.185157	0.497117	-0.339161	-0.170369	0.469315	-0.469468	-0.271303	0.374315	-0.324507	-0.277071	0.333185	-0.336358	-0.216809	0.364355	-0.313350	-0.219368	0.325030	-0.319075	-0.269174	0.127672	-0.343253	-0.239848	0.135301	-0.421107	-0.321292	0.124761	-0.391593	-0.192370	0.043236	-0.314722	-0.152085	0.042800	-0.381372	-0.132315	0.034866	-0.374637	-0.223894	0.736970	-0.718429	-0.201087	0.680663	-0.729561	-0.138710	0.699595	-0.729030	-0.154008	0.756863	-0.719373	-0.175284	0.495764	-0.738439	-0.147742	0.472898	-0.616972	-0.267777	0.349080	-0.749198	-0.276361	0.309627	-0.742458	-0.217888	0.300209	-0.758247	-0.216225	0.343778	-0.764456	-0.269126	0.143316	-0.751030	-0.245331	0.152935	-0.671312	-0.327185	0.144859	-0.697177	-0.213237	0.053599	-0.770287	-0.174740	0.047489	-0.705597	-0.156628	0.035878	-0.710712	
